# xmcd
#
# Track frame offsets: 
#        225
#        17056
#        35852
#        49646
#        72496
#        96438
#        118624
#        139701
#        156009
#        172946
#        190591
#        215293
#        232736
#
# Disc length: 3391 seconds
#
# Revision: 0
# Processed by: cddbd v1.5.2PL0 Copyright (c) Steve Scherf et al.
# Submitted via: ExactAudioCopy v0.95b4
#
DISCID=ab0d3c0d
DTITLE=Van Morrison - Inarticulate Speech of the Heart (remastered 200
DTITLE=8)
DYEAR=1983
DGENRE=Rock
TTITLE0=Higher Than the World 
TTITLE1=Connswater
TTITLE2=River of Time
TTITLE3=Celtic Swing
TTITLE4=Rave on John Donne
TTITLE5=Inarticulate Speech of the Heart No. 1
TTITLE6=Irish Heartbeat
TTITLE7=The Street Only Knew Your Name
TTITLE8=Cry for Home
TTITLE9=Inarticulate Speech of the Heart No. 2
TTITLE10=September Night
TTITLE11=Cry for Home (alt version)
TTITLE12=Inarticulate Speech of the Heart No. 2 (alt version)
EXTD=
EXTT0=
EXTT1=
EXTT2=
EXTT3=
EXTT4=
EXTT5=
EXTT6=
EXTT7=
EXTT8=
EXTT9=
EXTT10=
EXTT11=
EXTT12=
PLAYORDER=
